<svg width="20" height="20" viewBox="0 0 20 20" fill="none" xmlns="http://www.w3.org/2000/svg">
<mask id="mask0_441_855" style="mask-type:alpha" maskUnits="userSpaceOnUse" x="0" y="0" width="20" height="20">
<rect width="20" height="20" fill="#D9D9D9"/>
</mask>
<g mask="url(#mask0_441_855)">
<path d="M10 9.99998C9.08337 9.99998 8.29865 9.67359 7.64587 9.02081C6.9931 8.36804 6.66671 7.58331 6.66671 6.66665C6.66671 5.74998 6.9931 4.96526 7.64587 4.31248C8.29865 3.6597 9.08337 3.33331 10 3.33331C10.9167 3.33331 11.7014 3.6597 12.3542 4.31248C13.007 4.96526 13.3334 5.74998 13.3334 6.66665C13.3334 7.58331 13.007 8.36804 12.3542 9.02081C11.7014 9.67359 10.9167 9.99998 10 9.99998ZM3.33337 16.6666V14.3333C3.33337 13.8611 3.4549 13.4271 3.69796 13.0312C3.94101 12.6354 4.26393 12.3333 4.66671 12.125C5.52782 11.6944 6.40282 11.3715 7.29171 11.1562C8.1806 10.941 9.08337 10.8333 10 10.8333C10.9167 10.8333 11.8195 10.941 12.7084 11.1562C13.5973 11.3715 14.4723 11.6944 15.3334 12.125C15.7362 12.3333 16.0591 12.6354 16.3021 13.0312C16.5452 13.4271 16.6667 13.8611 16.6667 14.3333V16.6666H3.33337Z" fill="white"/>
</g>
</svg>
