<svg width="174" height="32" viewBox="0 0 174 32" fill="none" xmlns="http://www.w3.org/2000/svg">
<g clip-path="url(#clip0_243_436)">
<path d="M20.2283 20.7339C20.2283 18.9331 20.4958 17.3551 21.0307 16C21.5656 14.6449 22.2743 13.5172 23.1614 12.6167C24.0484 11.7163 25.0648 11.0388 26.2148 10.5841C27.3604 10.1294 28.5372 9.89764 29.7363 9.89764C32.5534 9.89764 34.751 10.7713 36.329 12.5187C37.9069 14.266 38.6959 16.8737 38.6959 20.3417C38.6959 20.6047 38.6915 20.8944 38.6781 21.2198C38.6647 21.5452 38.6469 21.8394 38.6201 22.0979H25.1227C25.252 23.7428 25.8315 25.0132 26.8656 25.9136C27.8953 26.814 29.3886 27.2642 31.3454 27.2642C32.491 27.2642 33.543 27.1617 34.4925 26.9522C35.4419 26.7427 36.1952 26.5243 36.7435 26.288L37.3676 30.1616C37.1046 30.2909 36.748 30.4291 36.2933 30.5717C35.8386 30.7143 35.3171 30.8436 34.7287 30.964C34.1403 31.0799 33.5073 31.1779 32.8298 31.2582C32.1522 31.3384 31.4613 31.3741 30.757 31.3741C28.9562 31.3741 27.3916 31.1066 26.0633 30.5717C24.7349 30.0368 23.6383 29.2924 22.778 28.3429C21.9177 27.389 21.2803 26.2702 20.8613 24.9775C20.4423 23.6848 20.2372 22.2718 20.2372 20.7339H20.2283ZM33.9576 18.621C33.9576 17.9702 33.8639 17.3506 33.6856 16.7623C33.5029 16.1739 33.2354 15.6657 32.8833 15.2378C32.5311 14.8054 32.0988 14.4711 31.5906 14.2215C31.0824 13.9718 30.4762 13.8515 29.7719 13.8515C29.0676 13.8515 28.4035 13.9897 27.8552 14.2616C27.3069 14.5335 26.8433 14.8945 26.4644 15.3358C26.0855 15.7816 25.7913 16.2898 25.5863 16.8603C25.3768 17.4353 25.2341 18.0193 25.1539 18.621H33.9576Z" fill="white"/>
<path d="M58.9153 30.2775C58.0015 30.5138 56.8158 30.7545 55.3537 30.9996C53.8917 31.2493 52.2914 31.3696 50.544 31.3696C48.8992 31.3696 47.5263 31.1334 46.4164 30.6653C45.3064 30.1973 44.4194 29.5465 43.7552 28.7085C43.091 27.8749 42.6141 26.8764 42.3288 25.7174C42.0435 24.5585 41.8964 23.2881 41.8964 21.9018V10.4415H46.6303V21.1574C46.6303 23.346 46.9513 24.9106 47.5887 25.8512C48.2261 26.7917 49.3405 27.2598 50.9319 27.2598C51.5069 27.2598 52.1131 27.233 52.7505 27.1795C53.388 27.126 53.8649 27.0636 54.1769 26.9834V10.4459H58.9108V30.2775H58.9153Z" fill="white"/>
<path d="M63.1411 5.04783L67.875 4.26331V10.4459H75.1497V14.3953H67.875V22.7264C67.875 24.3713 68.1335 25.5436 68.6595 26.2479C69.181 26.9522 70.0681 27.3043 71.3206 27.3043C72.1809 27.3043 72.9432 27.2152 73.6074 27.0324C74.2715 26.8497 74.802 26.6803 75.1898 26.5242L75.9743 30.2775C75.426 30.5137 74.7084 30.7545 73.8213 30.9996C72.9343 31.2492 71.8912 31.3696 70.6921 31.3696C69.2301 31.3696 68.0131 31.1735 67.0369 30.7812C66.0607 30.3889 65.2807 29.8228 64.7101 29.0784C64.1351 28.334 63.7339 27.4336 63.4977 26.3816C63.2614 25.3252 63.1455 24.1172 63.1455 22.7621V5.04783H63.1411Z" fill="white"/>
<path d="M89.8194 15.1798C89.4272 15.0505 88.8878 14.9124 88.1969 14.7697C87.506 14.6271 86.7036 14.5558 85.7898 14.5558C85.2683 14.5558 84.7155 14.6092 84.1271 14.7118C83.5388 14.8143 83.1331 14.9079 82.8969 14.9837V31.374H78.163V11.8901C79.0768 11.5514 80.2179 11.2304 81.5863 10.9318C82.9548 10.6331 84.4748 10.4816 86.142 10.4816C86.454 10.4816 86.8195 10.4994 87.2385 10.5395C87.6575 10.5796 88.0721 10.6331 88.4911 10.6955C88.9101 10.7624 89.3113 10.8382 89.7035 10.9318C90.0958 11.0254 90.4078 11.1056 90.6441 11.1859L89.8239 15.1754L89.8194 15.1798Z" fill="white"/>
<path d="M99.1669 9.97345C100.731 9.97345 102.046 10.1696 103.116 10.5618C104.186 10.9541 105.037 11.5024 105.679 12.2067C106.317 12.911 106.776 13.7668 107.048 14.7698C107.32 15.7727 107.458 16.8782 107.458 18.0773V30.4781C106.727 30.6341 105.626 30.8258 104.15 31.0442C102.675 31.2671 101.012 31.3785 99.1624 31.3785C97.9366 31.3785 96.8133 31.2626 95.797 31.0264C94.7806 30.7902 93.9114 30.4157 93.1938 29.8942C92.4761 29.3727 91.9144 28.6951 91.5133 27.8615C91.1076 27.028 90.907 25.9983 90.907 24.7725C90.907 23.5467 91.1344 22.6061 91.5935 21.7993C92.0482 20.9925 92.6678 20.3328 93.4523 19.8246C94.2368 19.3165 95.1417 18.9509 96.1714 18.7281C97.2011 18.5052 98.2754 18.3937 99.3987 18.3937C99.9202 18.3937 100.468 18.4249 101.043 18.4918C101.619 18.5587 102.229 18.6657 102.884 18.8261V18.0416C102.884 17.4933 102.818 16.9718 102.688 16.477C102.559 15.9822 102.327 15.5454 102.002 15.1665C101.676 14.7876 101.244 14.4934 100.709 14.2883C100.174 14.0788 99.5012 13.9763 98.6944 13.9763C97.5978 13.9763 96.5949 14.0566 95.6811 14.2126C94.7673 14.3686 94.0229 14.5513 93.4523 14.7608L92.8639 10.9274C93.4657 10.7179 94.3349 10.5084 95.4849 10.3033C96.6305 10.0938 97.8563 9.99128 99.1624 9.99128L99.1669 9.97345ZM99.5591 27.6164C101.017 27.6164 102.127 27.5362 102.884 27.3801V22.1381C102.621 22.0578 102.247 21.9821 101.752 21.9018C101.257 21.8216 100.709 21.7859 100.107 21.7859C99.5859 21.7859 99.0554 21.826 98.525 21.9018C97.9901 21.9821 97.5087 22.1247 97.0763 22.3342C96.6484 22.5437 96.3007 22.8379 96.0377 23.2123C95.7747 23.5912 95.6454 24.0682 95.6454 24.6388C95.6454 25.7621 95.9976 26.5377 96.7018 26.9656C97.4061 27.3935 98.3556 27.6119 99.5591 27.6119V27.6164Z" fill="white"/>
<path d="M116.449 31.3741C115.138 28.6862 113.797 25.606 112.424 22.1247C111.046 18.6434 109.798 14.908 108.67 10.9185H113.716C114.006 12.0685 114.336 13.2988 114.719 14.6138C115.098 15.9287 115.504 17.2482 115.936 18.5631C116.369 19.8781 116.814 21.1574 117.273 22.3966C117.733 23.6358 118.156 24.7502 118.548 25.7398C118.941 24.7502 119.36 23.6358 119.805 22.3966C120.251 21.1574 120.688 19.8781 121.12 18.5631C121.553 17.2482 121.963 15.9287 122.359 14.6138C122.752 13.2988 123.09 12.064 123.38 10.9185H128.27C127.147 14.908 125.894 18.6434 124.517 22.1247C123.14 25.606 121.802 28.6907 120.492 31.3741H116.444H116.449Z" fill="white"/>
<path d="M128.587 20.7339C128.587 18.9331 128.854 17.3551 129.389 16C129.924 14.6449 130.633 13.5172 131.52 12.6167C132.407 11.7163 133.423 11.0388 134.569 10.5841C135.714 10.1294 136.891 9.89764 138.09 9.89764C140.907 9.89764 143.105 10.7713 144.683 12.5187C146.261 14.266 147.05 16.8737 147.05 20.3417C147.05 20.6047 147.045 20.8944 147.032 21.2198C147.019 21.5452 147.001 21.8394 146.974 22.0979H133.481C133.61 23.7428 134.19 25.0132 135.219 25.9136C136.249 26.814 137.742 27.2642 139.699 27.2642C140.845 27.2642 141.897 27.1617 142.851 26.9522C143.8 26.7427 144.554 26.5243 145.102 26.288L145.726 30.1616C145.463 30.2909 145.106 30.4291 144.652 30.5717C144.197 30.7143 143.675 30.8436 143.087 30.964C142.499 31.0799 141.866 31.1779 141.188 31.2582C140.511 31.3384 139.82 31.3741 139.115 31.3741C137.314 31.3741 135.75 31.1066 134.422 30.5717C133.093 30.0368 131.997 29.2924 131.136 28.3429C130.276 27.389 129.634 26.2702 129.22 24.9775C128.801 23.6848 128.596 22.2718 128.596 20.7339H128.587ZM142.316 18.621C142.316 17.9702 142.222 17.3506 142.044 16.7623C141.861 16.1739 141.594 15.6657 141.242 15.2378C140.889 14.8054 140.457 14.4711 139.949 14.2215C139.441 13.9718 138.834 13.8515 138.13 13.8515C137.426 13.8515 136.762 13.9897 136.213 14.2616C135.665 14.5335 135.202 14.8945 134.827 15.3358C134.448 15.7816 134.154 16.2898 133.949 16.8603C133.74 17.4353 133.597 18.0193 133.517 18.621H142.32H142.316Z" fill="white"/>
<path d="M157.61 31.3741C156.201 31.3473 155.033 31.1913 154.11 30.906C153.183 30.6208 152.448 30.2107 151.9 29.6758C151.351 29.1408 150.968 28.4767 150.745 27.6788C150.522 26.8853 150.415 25.976 150.415 24.9597V1.4105L155.149 0.625977V24.0593C155.149 24.6343 155.194 25.1157 155.287 25.508C155.376 25.9002 155.541 26.2301 155.778 26.5064C156.014 26.7784 156.33 26.9879 156.736 27.1305C157.142 27.2731 157.654 27.3846 158.283 27.4648L157.619 31.3785L157.61 31.3741Z" fill="white"/>
<path d="M165.669 27.4603C166.921 27.4603 167.835 27.3088 168.406 27.0101C168.981 26.7115 169.266 26.1944 169.266 25.4634C169.266 24.7858 168.959 24.2242 168.348 23.7829C167.737 23.3416 166.725 22.8557 165.317 22.3342C164.456 22.0221 163.667 21.6878 162.95 21.3357C162.232 20.9835 161.613 20.5734 161.091 20.1054C160.569 19.6374 160.159 19.0668 159.856 18.4026C159.553 17.7385 159.406 16.9227 159.406 15.9599C159.406 14.0833 160.097 12.6034 161.479 11.5202C162.861 10.437 164.737 9.89764 167.113 9.89764C168.312 9.89764 169.462 10.0091 170.554 10.232C171.651 10.4548 172.471 10.6688 173.019 10.8783L172.159 14.7118C171.638 14.4755 170.973 14.2616 170.162 14.0654C169.355 13.8693 168.415 13.7712 167.345 13.7712C166.382 13.7712 165.598 13.9362 164.996 14.2616C164.394 14.587 164.095 15.0907 164.095 15.7682C164.095 16.107 164.153 16.4057 164.269 16.6686C164.385 16.9316 164.59 17.1723 164.875 17.3908C165.161 17.6136 165.54 17.8365 166.008 18.0549C166.476 18.2778 167.051 18.5051 167.728 18.7414C168.847 19.1604 169.801 19.5705 170.586 19.9717C171.37 20.3773 172.012 20.832 172.52 21.3401C173.028 21.8483 173.398 22.4278 173.634 23.083C173.871 23.7338 173.987 24.5184 173.987 25.4322C173.987 27.389 173.265 28.8689 171.816 29.8719C170.367 30.8748 168.303 31.3785 165.615 31.3785C163.815 31.3785 162.37 31.227 161.274 30.9283C160.177 30.6297 159.41 30.3889 158.965 30.2062L159.785 26.2568C160.489 26.5465 161.332 26.8185 162.308 27.077C163.284 27.34 164.403 27.4693 165.651 27.4693L165.669 27.4603Z" fill="white"/>
<path d="M22.6398 6.10872L22.2565 5.95716C21.102 5.50249 19.7915 5.70308 18.8242 6.48315L15.0486 9.52765C14.9238 9.63463 14.7634 9.69258 14.5984 9.68812L8.99976 9.4697C8.39799 9.44741 7.80959 9.66583 7.37275 10.0759L7.28806 10.1517C7.19 10.2453 7.23011 10.4102 7.35938 10.4504L11.9328 11.7252C11.9997 11.743 12.0175 11.8277 11.964 11.8723L8.98638 14.4889C8.56737 14.8544 7.97898 14.948 7.46636 14.7341L5.43373 13.8648C5.08604 13.7177 4.68486 13.8604 4.50656 14.1947C4.355 14.48 4.41295 14.8321 4.6492 15.055L6.69967 16.994C7.56443 17.8142 8.89278 17.8944 9.8556 17.1902L11.3088 16.1248L14.7946 13.2987L15.3562 20.0697C15.3562 20.0965 15.3829 20.1188 15.4097 20.1188C16.0917 20.0653 16.6444 19.5571 16.7603 18.884L18.1778 10.5573L22.7557 6.84421C23.0098 6.63471 22.9474 6.22907 22.6443 6.10872H22.6398Z" fill="white"/>
<path d="M15.4721 20.8988H15.4365H15.4053C14.9773 20.8988 14.6118 20.5645 14.5762 20.1366L14.1393 14.8365L11.8348 16.7043C11.964 17.0341 12.071 17.4041 12.1468 17.8142C12.2894 18.5853 12.3608 19.517 12.3608 20.6135V31.3696H17.0947V20.0073C16.7113 20.5065 16.1318 20.8453 15.4721 20.8988Z" fill="white"/>
<path d="M4.10985 15.6255C3.62844 15.162 3.50809 14.4265 3.81566 13.8381C4.07865 13.3433 4.58681 13.0313 5.14846 13.0313C5.35351 13.0313 5.54964 13.0714 5.73686 13.1516L7.76949 14.0208C7.85419 14.0565 7.93888 14.0743 8.02803 14.0743C8.1885 14.0743 8.34452 14.0164 8.46487 13.9094L10.4797 12.1397L7.14098 11.2081C6.82004 11.119 6.57042 10.8649 6.48126 10.5439C5.44712 10.5974 4.46646 10.6955 3.55266 10.8426C2.09059 11.0788 0.904884 11.324 -0.00891113 11.587V31.3785H4.72499V16.2184L4.10094 15.63L4.10985 15.6255Z" fill="white"/>
</g>
<defs>
<clipPath id="clip0_243_436">
<rect width="174" height="30.7481" fill="white" transform="translate(0 0.625977)"/>
</clipPath>
</defs>
</svg>
